<?xml version="1.0" encoding="UTF-8"?>
<svg id="Layer_5" data-name="Layer 5" xmlns="http://www.w3.org/2000/svg" width="500" height="500" viewBox="0 0 500 500">
  <defs>
    <style>
      .cls-1 {
        fill: #b8e3ff;
      }

      .cls-1, .cls-2, .cls-3, .cls-4 {
        isolation: isolate;
      }

      .cls-2 {
        fill: #61b0b7;
      }

      .cls-3 {
        fill: #16558f;
      }

      .cls-4 {
        fill: #0583d2;
      }
    </style>
  </defs>
  <path class="cls-2" d="m486.06,214.11l-45.56,56.42c-12.1,14.98-16.05,34.95-10.56,53.4l20.65,69.52c13.8,46.48-31.67,88.61-76.96,71.29l-67.74-25.9c-17.98-6.87-38.2-4.46-54.06,6.46l-59.73,41.12c-39.93,27.49-94.06-2.74-91.59-51.16l3.7-72.42c.98-19.23-7.56-37.71-22.84-49.41l-57.57-44.1c-38.49-29.49-26.46-90.3,20.36-102.91l70.02-18.87c18.59-5.01,33.52-18.84,39.94-37l24.16-68.38c16.15-45.71,77.71-53.07,104.17-12.44l39.58,60.77c10.51,16.13,28.28,26.06,47.53,26.55l72.5,1.84c48.47,1.23,74.48,57.51,44.02,95.22Z"/>
  <path class="cls-3" d="m441.8,222.16l-36.09,44.69c-9.58,11.86-12.71,27.68-8.37,42.3l16.36,55.07c10.93,36.81-25.09,70.19-60.96,56.47l-53.66-20.51c-14.24-5.45-30.26-3.53-42.82,5.11l-47.32,32.57c-31.63,21.78-74.5-2.17-72.55-40.53l2.93-57.37c.78-15.23-5.99-29.87-18.1-39.14l-45.6-34.94c-30.49-23.36-20.96-71.53,16.13-81.52l55.47-14.94c14.73-3.97,26.56-14.93,31.64-29.31l19.13-54.16c12.79-36.21,61.55-42.03,82.51-9.85l31.35,48.13c8.32,12.78,22.4,20.64,37.65,21.03l57.43,1.46c38.39.98,59,45.55,34.87,75.43Z"/>
  <path class="cls-1" d="m397.7,233.34l-27.74,34.35c-7.36,9.12-9.77,21.28-6.43,32.52l12.57,42.33c8.4,28.3-19.29,53.95-46.86,43.41l-41.24-15.77c-10.95-4.19-23.26-2.72-32.91,3.93l-36.37,25.04c-24.31,16.74-57.27-1.67-55.76-31.15l2.25-44.1c.6-11.71-4.6-22.96-13.91-30.09l-35.05-26.85c-23.43-17.95-16.11-54.98,12.39-62.66l42.63-11.49c11.32-3.05,20.41-11.47,24.32-22.52l14.71-41.63c9.83-27.83,47.31-32.31,63.42-7.57l24.1,37c6.4,9.82,17.22,15.87,28.94,16.16l44.14,1.12c29.51.75,45.35,35.01,26.8,57.98Z"/>
  <path class="cls-4" d="m361.8,237.32l-20.34,25.19c-5.4,6.69-7.16,15.6-4.72,23.84l9.22,31.04c6.16,20.75-14.14,39.56-34.36,31.83l-30.24-11.56c-8.03-3.07-17.05-1.99-24.13,2.88l-26.67,18.36c-17.83,12.27-41.99-1.23-40.89-22.84l1.65-32.34c.44-8.58-3.38-16.84-10.2-22.06l-25.7-19.69c-17.18-13.16-11.81-40.32,9.09-45.95l31.26-8.42c8.3-2.24,14.97-8.41,17.83-16.52l10.79-30.53c7.21-20.41,34.69-23.69,46.51-5.55l17.67,27.13c4.69,7.2,12.63,11.64,21.22,11.85l32.37.82c21.64.55,33.25,25.67,19.65,42.52Z"/>
</svg>